<svg width="135" height="29" viewBox="0 0 135 29" fill="none" xmlns="http://www.w3.org/2000/svg">
<g clip-path="url(#clip0_1_10)">
<path fill-rule="evenodd" clip-rule="evenodd" d="M44.3271 20.2366C43.7213 20.2511 43.119 20.1391 42.5579 19.9076C42.1743 19.7297 41.8328 19.4707 41.5564 19.1482V19.9919H39.2197V7.25131H41.7234V11.5882C41.9648 11.343 42.2474 11.143 42.5579 10.9976C43.1169 10.7361 43.7282 10.609 44.3438 10.6263C45.1818 10.6025 46.0093 10.8189 46.7306 11.2507C47.4277 11.6726 48.0032 12.2719 48.3997 12.9888C48.8146 13.7293 49.0277 14.5678 49.0173 15.4188C49.0252 16.2722 48.8123 17.1128 48.3997 17.8572C48.0061 18.5894 47.4213 19.1983 46.7091 19.6179C45.997 20.0374 45.1846 20.2514 44.3605 20.2366H44.3271ZM44.0267 17.9585C44.4596 17.9677 44.8868 17.8568 45.2618 17.6379C45.6181 17.4255 45.9074 17.1154 46.0964 16.7435C46.3035 16.3369 46.4068 15.8845 46.3968 15.4272C46.4076 14.9753 46.3042 14.5281 46.0964 14.1279C45.9074 13.756 45.6181 13.4458 45.2618 13.2335C44.8901 13.0049 44.4617 12.8878 44.0267 12.896C43.6053 12.8953 43.1911 13.0058 42.825 13.2166C42.4723 13.4334 42.184 13.7424 41.9904 14.111C41.7984 14.5218 41.7068 14.9732 41.7234 15.4272C41.7126 15.8826 41.8099 16.3339 42.0071 16.7435C42.1986 17.1136 42.4874 17.4231 42.8416 17.6379C43.2017 17.8488 43.6106 17.9594 44.0267 17.9585ZM53.674 20.1354C52.7955 20.2094 51.9211 19.9508 51.2205 19.4097C50.943 19.0985 50.7302 18.7341 50.5946 18.3382C50.4686 17.9379 50.4204 17.5167 50.4527 17.0979V7.25131H52.9563V16.9123C52.9563 17.5957 53.3235 17.9416 54.0579 17.9416H54.1247V20.1354H53.674ZM57.3043 19.7472C57.9892 20.0695 58.7354 20.2364 59.4908 20.2364C60.2462 20.2364 60.9925 20.0695 61.6773 19.7472C62.2801 19.4406 62.7839 18.9664 63.1294 18.3804C63.4958 17.7649 63.681 17.0566 63.6636 16.3385V10.8204H61.1599V16.2879C61.1683 16.5843 61.0931 16.8769 60.9429 17.1316C60.8109 17.383 60.6074 17.5887 60.3588 17.7222C60.1021 17.8603 59.8149 17.93 59.5242 17.9247C59.2171 17.9342 58.9127 17.8645 58.6396 17.7222C58.3929 17.5802 58.1861 17.377 58.0387 17.1316C57.9061 16.8707 57.8374 16.5813 57.8384 16.2879V10.8204H55.3348V16.3385C55.3198 17.0541 55.4987 17.7602 55.8522 18.3804C56.2044 18.961 56.7064 19.4335 57.3043 19.7472ZM69.8809 20.2366C69.0045 20.2548 68.1394 20.0333 67.3773 19.5954C66.6756 19.172 66.0992 18.5659 65.7082 17.8404C65.3039 17.0956 65.0915 16.2599 65.0906 15.4104C65.0744 14.5501 65.2815 13.7006 65.6915 12.9466C66.0971 12.2499 66.6715 11.6692 67.3606 11.2591C68.0721 10.8322 68.8867 10.6131 69.714 10.6263C70.3709 10.6122 71.0239 10.7327 71.6335 10.9807C72.1658 11.1917 72.6448 11.5204 73.0355 11.9426C73.4277 12.3583 73.729 12.8527 73.9201 13.3938C74.1282 13.9605 74.2301 14.5613 74.2206 15.1657C74.2206 15.3429 74.2206 15.5285 74.2206 15.7057C74.2178 15.8557 74.1896 16.0041 74.1371 16.1444H67.7194C67.7429 16.37 67.7962 16.5914 67.878 16.8026C68.0308 17.181 68.2925 17.5043 68.6291 17.7307C69.0101 17.9498 69.4427 18.0606 69.8809 18.0513H73.2191V20.2451L69.8809 20.2366ZM67.8947 13.9085C67.8727 14.0361 67.8363 14.1606 67.7862 14.2797H71.575C71.5611 14.1414 71.5302 14.0054 71.4832 13.8748C71.3766 13.5087 71.1462 13.1922 70.8323 12.9804C70.5074 12.7444 70.1136 12.6256 69.714 12.6429C69.3179 12.6341 68.9283 12.7458 68.5957 12.9635C68.2721 13.1988 68.0275 13.5286 67.8947 13.9085ZM77.6088 19.5954C78.2291 19.9563 78.922 20.1711 79.6358 20.2237C80.3496 20.2762 81.0659 20.1653 81.7315 19.8991C82.1227 19.729 82.4749 19.4791 82.7663 19.1651V20.0088H85.1197V7.25131H82.6161V11.5882C82.3724 11.3457 82.0903 11.1461 81.7815 10.9976C81.2162 10.7282 80.595 10.6008 79.9706 10.6263C79.1411 10.6077 78.3231 10.8239 77.6088 11.2507C76.9118 11.6726 76.3363 12.2719 75.9397 12.9888C75.5248 13.7293 75.3117 14.5678 75.3222 15.4188C75.3142 16.2722 75.5271 17.1128 75.9397 17.8572C76.3363 18.5741 76.9118 19.1734 77.6088 19.5954ZM81.4978 17.6379C81.1349 17.8565 80.7184 17.9676 80.296 17.9585C79.8631 17.9677 79.4359 17.8568 79.0609 17.6379C78.7047 17.4255 78.4153 17.1154 78.2264 16.7435C78.0192 16.3369 77.9159 15.8845 77.9259 15.4272C77.9151 14.9753 78.0186 14.5281 78.2264 14.1279C78.4153 13.756 78.7047 13.4458 79.0609 13.2335C79.433 13.0058 79.8611 12.8888 80.296 12.896C80.7184 12.8869 81.1349 12.998 81.4978 13.2166C81.854 13.429 82.1434 13.7391 82.3323 14.111C82.5344 14.5188 82.6319 14.9714 82.6161 15.4272C82.6261 15.8845 82.5228 16.3369 82.3156 16.7435C82.1279 17.1162 81.8382 17.4266 81.4811 17.6379H81.4978ZM86.939 10.8204H89.2924V12.1957C89.4418 11.7573 89.7367 11.3846 90.127 11.141C90.6341 10.8472 91.2118 10.7011 91.7961 10.7191H92.3302V12.9129H91.5457C91.2612 12.8981 90.9769 12.9441 90.7112 13.0479C90.4537 13.141 90.22 13.2909 90.0268 13.4866C89.8289 13.6978 89.6755 13.9476 89.5762 14.2207C89.4804 14.4909 89.4406 14.7781 89.4593 15.0644V20.0257H86.9557L86.939 10.8204ZM95.418 19.6122C96.1843 20.0378 97.0475 20.2531 97.9216 20.2366C98.7792 20.2473 99.6248 20.0322 100.375 19.6122C101.096 19.2151 101.7 18.6331 102.128 17.9247C102.58 17.1794 102.812 16.3185 102.795 15.4441C102.816 14.5692 102.584 13.7073 102.128 12.9635C101.7 12.2552 101.096 11.6732 100.375 11.276C99.2496 10.6263 97.9199 10.4391 96.6616 10.7532C95.4032 11.0674 94.3125 11.8587 93.6154 12.9635C93.1737 13.7128 92.9482 14.572 92.9644 15.4441C92.9522 16.3157 93.1774 17.1739 93.6154 17.9247C94.0656 18.6322 94.6857 19.2128 95.418 19.6122ZM99.0733 17.6379C98.7165 17.8565 98.3054 17.9677 97.8883 17.9585C97.4705 17.9685 97.0582 17.86 96.6983 17.6453C96.3384 17.4305 96.0452 17.1181 95.852 16.7435C95.6586 16.3326 95.5615 15.8822 95.5682 15.4272C95.5617 14.9777 95.6588 14.5328 95.852 14.1279C96.0455 13.7593 96.3338 13.4503 96.6865 13.2335C97.046 13.005 97.4637 12.8877 97.8883 12.896C98.3001 12.8931 98.7045 13.007 99.0556 13.2247C99.4067 13.4425 99.6904 13.7554 99.8745 14.1279C100.074 14.5301 100.166 14.978 100.141 15.4272C100.151 15.8845 100.048 16.3369 99.8411 16.7435C99.6753 17.1099 99.4088 17.4204 99.0733 17.6379ZM104.239 23.4091V10.8204H106.576V11.7738C106.85 11.4464 107.192 11.1843 107.577 11.006C108.136 10.7445 108.748 10.6175 109.363 10.6348C110.191 10.625 111.006 10.8469 111.717 11.276C112.416 11.6954 112.992 12.2953 113.386 13.0141C113.801 13.7546 114.014 14.5932 114.003 15.4441C114.01 16.2946 113.797 17.1321 113.386 17.8741C112.998 18.6021 112.421 19.209 111.717 19.6291C111.101 19.9758 110.418 20.1805 109.715 20.2287C109.013 20.2768 108.308 20.1671 107.652 19.9076C107.345 19.7631 107.064 19.5693 106.818 19.3338V23.4176L104.239 23.4091ZM109.046 17.9585C109.479 17.9677 109.906 17.8568 110.281 17.6379C110.637 17.4255 110.927 17.1154 111.116 16.7435C111.323 16.3369 111.426 15.8845 111.416 15.4272C111.427 14.9753 111.324 14.5281 111.116 14.1279C110.927 13.756 110.637 13.4458 110.281 13.2335C109.909 13.0049 109.481 12.8878 109.046 12.896C108.625 12.8961 108.211 13.0065 107.844 13.2166C107.492 13.4334 107.203 13.7424 107.01 14.111C106.823 14.5241 106.726 14.973 106.726 15.4272C106.726 15.8815 106.823 16.3304 107.01 16.7435C107.201 17.1136 107.49 17.4231 107.844 17.6379C108.211 17.848 108.625 17.9584 109.046 17.9585ZM116.707 17.5029V20.0341H119.211V17.5029H116.707ZM123.384 20.0341V13.0141H121.84V10.8204H123.375V10.6854C123.358 10.041 123.502 9.40265 123.793 8.82913C124.083 8.32463 124.516 7.91924 125.036 7.66475C125.641 7.37626 126.304 7.23468 126.972 7.25131H127.439C127.579 7.25985 127.719 7.27676 127.857 7.30194V9.49569H127.306C126.924 9.47569 126.547 9.58888 126.238 9.81631C126.117 9.93151 126.022 10.0728 125.962 10.2298C125.904 10.3889 125.879 10.5582 125.887 10.7276V10.8626H127.84V13.0563H125.887V20.0763L123.384 20.0341ZM131.462 10.8204H129.125V20.0341H131.629V15.0729C131.613 14.7859 131.655 14.4987 131.754 14.2291C131.847 13.9549 131.998 13.7044 132.196 13.4951C132.395 13.3057 132.627 13.1567 132.881 13.0563C133.146 12.9526 133.431 12.9066 133.715 12.9213H134.5V10.7276H133.966C133.381 10.7096 132.804 10.8556 132.297 11.1494C131.911 11.3981 131.617 11.769 131.462 12.2041V10.8204Z" fill="white"/>
</g>
<g clip-path="url(#clip1_1_10)">
<path d="M27.7054 1H1V28H27.7054V1Z" fill="#1852E5"/>
<path d="M27.7054 1H1V28H27.7054V1Z" stroke="white"/>
<path fill-rule="evenodd" clip-rule="evenodd" d="M14.3531 6.0625C12.4223 6.06208 10.5511 6.73855 9.05835 7.97662C7.56558 9.2147 6.5436 10.9378 6.16655 12.8523C5.7895 14.7668 6.0807 16.7542 6.99055 18.476C7.90039 20.1978 9.37257 21.5473 11.1563 22.2946C12.9399 23.042 14.9247 23.1409 16.7725 22.5746C18.6202 22.0083 20.2166 20.8117 21.2895 19.1888C22.3625 17.5659 22.8457 15.617 22.6567 13.6743C22.4678 11.7316 21.6184 9.91523 20.2533 8.53469C18.6886 6.95224 16.5663 6.06298 14.3531 6.0625Z" fill="white"/>
<path fill-rule="evenodd" clip-rule="evenodd" d="M14.357 19.5625C11.5838 19.5625 9.3457 18.0005 9.3457 15.3109C9.3457 11.2683 14.357 8.76245 14.357 8.76245C14.357 8.76245 19.3602 11.0344 19.3602 15.3109C19.3602 18.0089 17.1222 19.5625 14.357 19.5625Z" fill="#1852E5"/>
</g>
<defs>
<clipPath id="clip0_1_10">
<rect width="96" height="17" fill="white" transform="translate(38.5 6.5)"/>
</clipPath>
<clipPath id="clip1_1_10">
<rect width="29" height="29" fill="white"/>
</clipPath>
</defs>
</svg>
