<svg width="95" height="27" viewBox="0 0 95 27" fill="none" xmlns="http://www.w3.org/2000/svg">
<g id="Calque_1" clip-path="url(#clip0_3534_1055)">
<path id="Vector" d="M39.3264 13.331C39.3155 14.5725 39.149 15.6754 38.6875 16.7208C37.8639 18.5885 36.472 19.7778 34.4502 20.197C32.9026 20.5173 31.3749 20.4165 29.8925 19.8713C28.6436 19.4125 27.6915 18.5867 27.0363 17.4207C26.3376 16.1774 26.2019 14.837 26.2616 13.4515C26.3087 12.3647 26.5422 11.3248 27.0417 10.3514C27.802 8.87054 28.9459 7.82696 30.5423 7.28538C31.6808 6.89853 32.8447 6.84635 34.0266 6.99569C34.9063 7.10725 35.7407 7.35015 36.5064 7.80177C37.4928 8.38294 38.2114 9.20521 38.6911 10.2344C39.1653 11.251 39.3173 12.3324 39.3246 13.331H39.3264ZM35.4185 13.2104C35.3679 12.5141 35.3389 11.816 35.2593 11.1214C35.1814 10.4377 35.0113 9.77198 34.6782 9.15843C34.2348 8.34515 33.328 7.93852 32.4193 8.14543C31.7713 8.29297 31.3587 8.7266 31.0419 9.26998C30.5496 10.1174 30.3595 11.0549 30.2926 12.0121C30.2256 12.9513 30.2039 13.8977 30.2238 14.8406C30.2364 15.4631 30.3288 16.0893 30.4392 16.7046C30.5604 17.3847 30.812 18.0217 31.2609 18.5705C31.9831 19.4539 33.5126 19.5547 34.2728 18.5345C34.6837 17.9839 34.9009 17.3577 35.0511 16.7028C35.3136 15.5549 35.3751 14.3871 35.4204 13.2122L35.4185 13.2104Z" fill="white"/>
<path id="Vector_2" d="M10.8136 17.5448C10.9258 17.6276 11.0217 17.6996 11.1267 17.7788C10.9348 18.261 10.7484 18.7378 10.5547 19.211C10.5348 19.2614 10.4787 19.3009 10.4317 19.3333C9.60086 19.9127 8.67231 20.2186 7.66594 20.3121C6.83152 20.3913 5.99709 20.3967 5.16629 20.2726C4.23051 20.1322 3.34541 19.8569 2.55261 19.3207C1.76887 18.79 1.18604 18.09 0.753447 17.2588C0.118128 16.0389 -0.0339144 14.729 0.00590618 13.3813C0.0312466 12.5177 0.138038 11.6666 0.424022 10.8479C0.843948 9.64241 1.52995 8.62402 2.61053 7.90431C3.39247 7.38251 4.2649 7.09463 5.19525 6.97948C6.11475 6.86432 7.03062 6.88951 7.93201 7.11622C9.26781 7.45269 10.2706 8.21918 10.9149 9.43729C11.391 10.3387 11.572 11.3139 11.6208 12.3179C11.6389 12.6994 11.6245 13.0826 11.6353 13.4641C11.6389 13.6224 11.5919 13.6782 11.4217 13.6764C9.01079 13.671 6.60164 13.6728 4.19069 13.6728C4.11467 13.6728 4.03865 13.6728 3.92099 13.6728C3.95538 14.1118 3.97529 14.5275 4.02416 14.9395C4.1201 15.7276 4.32101 16.4869 4.74275 17.1724C5.32376 18.1206 6.16543 18.664 7.28764 18.7252C8.50941 18.7918 9.61172 18.4463 10.5891 17.7122C10.6597 17.6582 10.7321 17.6042 10.8136 17.543V17.5448ZM8.05509 12.4853C8.05871 12.4421 8.06595 12.4187 8.06414 12.3953C7.98631 11.6846 7.92296 10.9703 7.82522 10.2614C7.75644 9.75756 7.60802 9.26996 7.34556 8.82554C6.85686 7.99967 5.77084 7.83773 5.09389 8.49267C4.77352 8.80215 4.57079 9.18719 4.41694 9.60103C4.16173 10.2848 4.06218 10.9991 3.98796 11.7188C3.96081 11.9707 3.95719 12.2244 3.94271 12.4853H8.0569H8.05509Z" fill="white"/>
<path id="Vector_3" d="M41.9424 0C43.2782 0.172731 44.5905 0.17453 45.9244 0C45.6439 6.67893 45.6385 13.3363 45.9244 19.9972H41.946C42.232 13.3525 42.2284 6.69512 41.9424 0Z" fill="white"/>
<path id="Vector_4" d="M67.7315 20.0224C67.5053 20.008 67.3098 19.9864 67.1143 19.9864C66.0808 19.9828 65.0473 19.9828 64.0119 19.9864C63.8617 19.9864 63.7115 19.999 63.563 20.0188C63.4255 20.0368 63.3513 19.9936 63.2807 19.8677C62.5331 18.5056 61.7783 17.1471 61.0236 15.7869C60.9928 15.7311 60.9566 15.6753 60.9113 15.598C60.8643 15.6609 60.8245 15.7095 60.7919 15.7599C59.9158 17.131 59.0416 18.502 58.1692 19.8749C58.1058 19.9756 58.0461 20.0206 57.9157 20.0188C57.2261 20.0098 56.5365 20.0152 55.8125 20.0152C55.9283 19.8839 56.0351 19.7777 56.1238 19.6589C57.1519 18.2825 58.1782 16.906 59.2009 15.5242C59.4651 15.1679 59.7041 14.7955 59.9647 14.4374C60.0443 14.3295 60.0461 14.2503 59.9774 14.1351C58.6379 11.9202 57.3022 9.70172 55.9645 7.48501C55.9247 7.41844 55.8813 7.35546 55.8215 7.2583C55.9211 7.2637 55.9935 7.2655 56.0659 7.27269C57.3981 7.40764 58.7285 7.42923 60.0588 7.2655C60.2181 7.24571 60.2905 7.29609 60.3629 7.43103C61.0543 8.71572 61.7512 9.99501 62.4481 11.2779C62.4788 11.3355 62.515 11.3912 62.5639 11.474C62.6128 11.4038 62.6544 11.3499 62.6906 11.2941C63.5558 9.98061 64.421 8.66714 65.2898 7.35546C65.3188 7.31228 65.3966 7.2619 65.4382 7.2709C66.1731 7.43643 66.9061 7.39505 67.6392 7.2637C67.6483 7.2637 67.6609 7.2691 67.6826 7.27449C67.6446 7.32667 67.6102 7.37346 67.574 7.42024C66.2075 9.17094 64.8427 10.9234 63.4725 12.6723C63.3802 12.7893 63.3766 12.8703 63.4544 12.998C64.8409 15.2687 66.2238 17.543 67.6066 19.8155C67.6428 19.8749 67.6772 19.936 67.7261 20.0206L67.7315 20.0224Z" fill="white"/>
<path id="Vector_5" d="M90.8057 15.1228C91.0754 15.3369 91.222 15.5816 91.1478 15.9163C91.0374 16.4219 90.4654 16.6576 90.0346 16.3661C89.926 16.2924 89.8627 16.2852 89.7577 16.3661C88.8255 17.0715 87.8897 17.7732 86.9521 18.4713C86.8526 18.5451 86.8327 18.6044 86.8924 18.7214C87.2562 19.4231 86.925 20.303 86.1974 20.5836C85.4498 20.8733 84.6245 20.4847 84.4 19.72C84.3439 19.5293 84.2624 19.5095 84.0833 19.5293C83.5583 19.585 83.0316 19.6192 82.5049 19.6516C82.3257 19.6624 82.2117 19.6786 82.1664 19.9053C82.0488 20.4757 81.475 20.796 80.9266 20.6304C80.3691 20.4631 80.0777 19.8801 80.2913 19.3295C80.3419 19.1982 80.3075 19.1424 80.2044 19.0705C79.665 18.6998 79.131 18.3256 78.5971 17.9459C78.4939 17.8721 78.4269 17.8721 78.3201 17.9531C78.0523 18.1582 77.6794 18.1348 77.4224 17.9207C77.1653 17.7066 77.0875 17.3485 77.245 17.0445C77.2938 16.9491 77.3138 16.8861 77.2251 16.798C76.4359 16.0207 75.6503 15.2362 74.863 14.4553C74.8376 14.4301 74.8087 14.4103 74.8087 14.4103C74.5517 14.5093 74.3218 14.6316 74.0756 14.682C73.4584 14.8098 72.8104 14.4247 72.595 13.8345C72.367 13.212 72.6077 12.5139 73.1724 12.208C73.3263 12.1234 73.3552 12.0479 73.2955 11.8877C73.1579 11.5189 73.0276 11.1464 72.919 10.7686C72.872 10.603 72.7941 10.5743 72.6385 10.5886C72.0068 10.648 71.4837 10.2864 71.3045 9.67821C71.0945 8.9639 71.6031 8.1956 72.3489 8.11643C72.5262 8.09844 72.6584 8.03727 72.7833 7.90592C73.6104 7.03147 74.4467 6.16422 75.2811 5.29336C75.3336 5.23759 75.3843 5.18001 75.444 5.11523C75.2214 4.83994 75.1435 4.53407 75.2286 4.203C75.3463 3.73339 75.7698 3.43651 76.2621 3.4599C76.7038 3.48149 77.1056 3.83415 77.1762 4.28397C77.1943 4.39912 77.2305 4.43151 77.3409 4.43691C78.6115 4.49448 79.884 4.55746 81.1546 4.61863C81.1945 4.62043 81.2361 4.61863 81.2886 4.61863C81.3356 4.15802 81.542 3.79276 81.9148 3.53367C82.1936 3.33934 82.5122 3.25478 82.8524 3.28357C83.6706 3.35554 84.105 3.89892 84.1864 4.9605C84.4996 5.00008 84.8199 5.04146 85.1385 5.08105C85.8824 5.17281 86.6263 5.26278 87.3703 5.35094C87.7449 5.39592 88.1214 5.43371 88.4961 5.48409C88.6029 5.49848 88.6391 5.46969 88.6753 5.37073C88.7984 5.03247 89.0825 4.86334 89.45 4.89212C89.7541 4.91551 90.0075 5.14762 90.0817 5.46789C90.1577 5.79716 89.9839 6.10304 89.5875 6.31176C89.6328 6.36753 89.6726 6.42331 89.7197 6.47369C90.603 7.43631 91.4863 8.39712 92.3696 9.35974C92.4564 9.4551 92.5415 9.51807 92.6881 9.52347C93.2981 9.53966 93.8357 9.99848 93.995 10.6228C94.1434 11.204 93.8664 11.8661 93.3506 12.172C92.985 12.3897 92.5976 12.4383 92.1922 12.3321C92.1053 12.3088 92.0618 12.3124 92.0238 12.3987C91.6202 13.3038 91.2148 14.2088 90.8057 15.121V15.1228ZM80.5772 12.2404C80.541 12.2782 80.4994 12.3106 80.4723 12.3519C80.3094 12.6164 80.1555 12.8863 79.9872 13.1472C79.913 13.2624 79.9383 13.3182 80.0469 13.3865C80.4578 13.6456 80.8614 13.9137 81.2705 14.1764C81.3157 14.2052 81.3664 14.2286 81.4153 14.2538C81.4261 14.243 81.4388 14.2322 81.4497 14.2214C81.1691 13.5719 80.8886 12.9223 80.608 12.2728C80.789 12.3843 80.8958 12.5445 80.9754 12.7406C81.1926 13.2714 81.4261 13.795 81.6524 14.3204C81.6759 14.3743 81.7049 14.4247 81.7357 14.4823C81.7737 14.4679 81.8008 14.4589 81.8262 14.4481C82.4144 14.1872 83.0298 14.3437 83.4081 14.8655C83.4896 14.9771 83.5457 14.9735 83.6543 14.9249C84.1448 14.6982 84.6371 14.4787 85.1276 14.2556C85.1801 14.2322 85.2272 14.1998 85.2887 14.1656C85.2435 14.1008 85.2109 14.0523 85.1765 14.0037C84.6407 13.284 84.105 12.5625 83.5692 11.8427C83.5028 11.754 83.5016 11.6712 83.5656 11.5944C83.5891 11.6232 83.6108 11.6502 83.6326 11.679C84.2009 12.4419 84.7729 13.2048 85.3358 13.9695C85.4136 14.0757 85.477 14.1008 85.6019 14.0451C87.43 13.212 89.2581 12.3825 91.0899 11.5549C91.2039 11.5027 91.231 11.4541 91.1967 11.3264C91.0754 10.8603 91.1623 10.4303 91.4682 10.0489C91.6817 9.78437 91.9659 9.62963 92.3116 9.53607C92.261 9.47309 92.2284 9.42631 92.1886 9.38313C91.289 8.40252 90.3894 7.42191 89.4898 6.4431C89.4536 6.40532 89.4083 6.35674 89.3631 6.34954C89.1025 6.31535 88.8798 6.21639 88.726 5.97709C88.6843 6.03827 88.659 6.07065 88.6391 6.10664C87.9784 7.31216 87.3196 8.51947 86.6571 9.72319C86.601 9.82395 86.6227 9.87433 86.7042 9.9463C87.0119 10.2162 87.1078 10.5617 87.0046 10.9503C86.8888 11.3929 86.4725 11.697 86.0327 11.6826C85.562 11.6682 85.1675 11.3551 85.0733 10.8873C85.0444 10.7434 84.9828 10.7218 84.8616 10.72C84.4887 10.7146 84.1176 10.702 83.7448 10.6858C83.705 10.6858 83.6688 10.648 83.6289 10.6282C83.6688 10.6048 83.7086 10.5599 83.7484 10.5599C84.1213 10.5599 84.4941 10.5599 84.8652 10.5778C84.9973 10.585 85.057 10.5599 85.0914 10.4267C85.1892 10.0453 85.4462 9.80236 85.8281 9.72319C86.0308 9.68181 86.2499 9.71599 86.4924 9.71599C86.4707 9.74118 86.4797 9.73219 86.487 9.72319C87.1911 8.43851 87.8952 7.15562 88.5956 5.86913C88.6264 5.81336 88.6228 5.74138 88.6373 5.66941C87.9278 5.58125 87.249 5.49668 86.572 5.41392C85.8173 5.32215 85.0607 5.23219 84.3059 5.13683C84.181 5.12063 84.1213 5.14042 84.067 5.26997C83.7375 6.06346 82.7927 6.39092 82.0415 5.96989C81.8497 5.86194 81.6904 5.6964 81.5094 5.55426C81.5003 5.59384 81.4804 5.63883 81.4786 5.68381C81.4388 6.21819 81.4026 6.75438 81.3628 7.29056C81.3193 7.87893 81.2596 8.46729 81.2343 9.05566C81.2252 9.27697 81.1021 9.33275 80.932 9.38673C80.8813 9.32015 80.8343 9.25898 80.7872 9.196C80.3998 8.67061 80.0107 8.14702 79.627 7.61983C79.5582 7.52447 79.5021 7.49208 79.3772 7.53347C78.9211 7.68101 78.4541 7.37873 78.436 6.90732C78.4287 6.72739 78.5138 6.54386 78.5681 6.31176C78.1337 5.82595 77.6577 5.29336 77.1671 4.74638C77.1364 4.80396 77.1219 4.82915 77.1074 4.85434C76.8051 5.42651 76.2314 5.60284 75.6666 5.28617C75.5544 5.22319 75.5073 5.26997 75.4422 5.33835C74.6005 6.21819 73.7589 7.09624 72.919 7.97429C72.881 8.01388 72.8484 8.06066 72.8158 8.10204C72.8412 8.12543 72.8484 8.13803 72.8575 8.14162C73.4602 8.33954 73.7571 8.76058 73.7896 9.38493C73.7914 9.43171 73.862 9.50728 73.9109 9.51627C74.9607 9.7034 76.0105 9.88333 77.0604 10.0651C77.893 10.209 78.7238 10.3511 79.5546 10.5005C79.5962 10.5077 79.6288 10.5725 79.665 10.6084C79.6252 10.6336 79.5853 10.6768 79.5437 10.6804C79.2089 10.711 78.874 10.7326 78.5391 10.7596C78.3943 10.7722 78.2495 10.792 78.083 10.8118C78.3781 11.2688 78.2984 11.6448 77.8694 11.9687C78.512 12.3843 79.1365 12.791 79.7754 13.2048C80.0053 12.827 80.2225 12.4725 80.4632 12.0784C80.5139 12.1504 80.5447 12.1936 80.5772 12.2368V12.2404ZM79.6921 13.3505C79.6559 13.3182 79.6396 13.3002 79.6197 13.2876C79.0007 12.8863 78.3907 12.4725 77.759 12.0946C77.6215 12.0137 77.3844 12.0065 77.2287 12.0641C76.5717 12.307 75.9291 12.5894 75.2811 12.8539C75.1815 12.8953 75.1544 12.9403 75.1815 13.0555C75.2702 13.4387 75.2087 13.8058 74.9734 14.1242C74.8865 14.243 74.9082 14.2988 74.9987 14.3887C75.7571 15.1372 76.5119 15.8893 77.2685 16.6414C77.4224 16.7944 77.5853 16.7854 77.7228 16.6126C77.7518 16.5749 77.7753 16.5317 77.7988 16.4921C78.2658 15.7202 78.731 14.9465 79.1962 14.1746C79.3591 13.9047 79.522 13.633 79.6903 13.3523L79.6921 13.3505ZM85.5385 14.234C85.6706 14.4121 85.7811 14.5705 85.9059 14.7216C85.9277 14.7468 86.0037 14.7432 86.0471 14.7306C86.5286 14.5884 86.9141 14.8062 87.0372 15.283C87.0499 15.3333 87.1223 15.4017 87.173 15.4053C87.9658 15.4827 88.7604 15.5529 89.555 15.6176C89.6165 15.623 89.7197 15.5816 89.7396 15.5367C89.8826 15.2002 90.1269 15.0365 90.4962 15.0401C90.5487 15.0401 90.6319 14.9843 90.65 14.9375C90.9831 14.0181 91.3089 13.095 91.6311 12.172C91.6474 12.127 91.6365 12.0551 91.6075 12.0173C91.5116 11.8895 91.4012 11.7708 91.2817 11.6322C89.3866 12.4905 87.4789 13.3577 85.5403 14.2358L85.5385 14.234ZM78.8649 10.603C78.8649 10.5832 78.8686 10.5635 78.8686 10.5437C78.8197 10.5311 78.7708 10.5167 78.722 10.5077C78.0034 10.3817 77.283 10.2558 76.5644 10.1316C75.663 9.97329 74.7616 9.81495 73.8584 9.66382C73.8168 9.65662 73.7335 9.707 73.719 9.74658C73.5978 10.0687 73.3914 10.3098 73.0873 10.4753C73.0511 10.4951 73.0149 10.5743 73.0258 10.6102C73.1779 11.087 73.3371 11.5603 73.4964 12.0389C73.5833 12.0335 73.6539 12.0335 73.7263 12.0263C74.2747 11.9741 74.6983 12.1882 74.9987 12.6344C75.0802 12.7568 75.1399 12.7586 75.2558 12.71C75.8241 12.4707 76.3961 12.2386 76.9662 12.0011C77.0169 11.9795 77.0658 11.9489 77.1436 11.9093C77.0785 11.8553 77.0314 11.8266 76.9952 11.7852C76.7907 11.5549 76.7581 11.2166 76.9101 10.9503C77.0622 10.6876 77.3843 10.5203 77.6776 10.6084C78.083 10.729 78.4704 10.5761 78.8668 10.6012L78.8649 10.603ZM81.008 9.24998C81.0279 9.24638 81.046 9.24278 81.0659 9.23918C81.1003 8.78397 81.1347 8.32695 81.1691 7.87173C81.1999 7.46869 81.2488 7.06386 81.2596 6.66082C81.2759 6.08505 81.4189 5.51467 81.3103 4.93351C81.2868 4.80756 81.2379 4.77697 81.1257 4.77157C80.3166 4.73739 79.5075 4.6996 78.6984 4.66002C78.3871 4.64562 78.0758 4.61683 77.7645 4.60064C77.6034 4.59344 77.4405 4.60064 77.2558 4.60064C77.2884 4.65282 77.2975 4.67441 77.3119 4.6924C77.7536 5.189 78.1989 5.68201 78.6387 6.18041C78.7147 6.26497 78.7708 6.23799 78.8559 6.2002C79.1654 6.06525 79.5093 6.15522 79.7157 6.41252C79.9166 6.66262 79.9329 7.01527 79.732 7.27617C79.6505 7.38233 79.6704 7.4471 79.7392 7.53887C80.0089 7.89692 80.2731 8.26038 80.5392 8.62023C80.6949 8.83075 80.8506 9.03946 81.0062 9.24998H81.008ZM77.8857 16.6378C78.159 16.6648 78.36 16.7494 78.4794 16.9437C78.5554 17.0697 78.6459 17.0769 78.7636 17.0553C79.6487 16.9005 80.532 16.7476 81.4171 16.591C81.4533 16.5838 81.4859 16.5605 81.5257 16.5425C80.961 15.9451 80.9628 15.1462 81.5999 14.5687C81.0135 14.189 80.4324 13.8112 79.8279 13.4189C79.1817 14.4913 78.5446 15.5475 77.8875 16.6342L77.8857 16.6378ZM86.7748 18.4209C86.9178 18.3148 87.0988 18.178 87.2798 18.0431C88.0762 17.4457 88.8726 16.8483 89.6708 16.2546C89.7649 16.1844 89.812 16.1232 89.7486 16.0063C89.7142 15.9415 89.707 15.8605 89.6853 15.7796C89.3577 15.7508 89.0355 15.7202 88.7115 15.6932C88.1974 15.65 87.6834 15.6086 87.1693 15.5655C87.0825 15.5583 87.0264 15.5745 86.992 15.668C86.9033 15.9091 86.7241 16.0513 86.4761 16.1232C86.4182 16.1394 86.3494 16.2132 86.3385 16.2726C86.2281 16.816 86.1268 17.3593 86.0308 17.9045C86.0236 17.9477 86.0544 18.0233 86.0906 18.0449C86.3042 18.1726 86.525 18.2878 86.773 18.4245L86.7748 18.4209ZM85.9946 16.0782C85.5168 15.7616 85.4697 15.2956 85.8046 14.8511C85.696 14.7054 85.582 14.5615 85.477 14.4085C85.4172 14.3204 85.3593 14.3132 85.267 14.3545C84.7385 14.5974 84.21 14.8385 83.6796 15.0761C83.5855 15.1174 83.5674 15.1642 83.5945 15.2686C83.7031 15.6752 83.6235 16.0513 83.3538 16.3769C83.276 16.4705 83.2959 16.5245 83.3665 16.6018C83.5728 16.8267 83.781 17.0517 83.9728 17.2892C84.0814 17.4259 84.1575 17.4439 84.3059 17.3323C84.8018 16.9545 85.3086 16.5928 85.8118 16.224C85.8698 16.1826 85.924 16.1376 85.9964 16.08L85.9946 16.0782ZM81.3881 16.7476C80.4451 16.9113 79.5401 17.0679 78.6459 17.2226C78.6224 17.3701 78.617 17.4961 78.579 17.613C78.5464 17.7066 78.5699 17.7552 78.6423 17.8056C79.2034 18.196 79.7645 18.5864 80.322 18.9787C80.4053 19.0381 80.4542 19.0165 80.5392 18.9661C80.7148 18.8617 80.9067 18.7754 81.1021 18.7106C81.1926 18.68 81.2325 18.6494 81.2397 18.5595C81.2741 18.1618 81.3121 17.7642 81.3465 17.3665C81.3628 17.1722 81.3736 16.9779 81.3899 16.7476H81.3881ZM84.0054 17.5429C83.7303 17.2334 83.4751 16.9401 83.2108 16.6576C83.1855 16.6288 83.0968 16.6414 83.0443 16.6576C82.8814 16.708 82.7239 16.7908 82.5574 16.825C82.2063 16.8951 81.8859 16.7872 81.5637 16.5677C81.5474 16.7296 81.5329 16.8627 81.5221 16.9941C81.475 17.5339 81.4261 18.0737 81.3845 18.6134C81.3809 18.6494 81.4135 18.7052 81.446 18.7232C81.6216 18.8204 81.8026 18.9067 82.0053 19.0093C82.6497 18.5361 83.3194 18.0449 84.0054 17.5429ZM84.3204 19.3565C84.3729 18.8923 84.4054 18.8006 84.6588 18.4587C84.7186 18.3777 84.7059 18.3256 84.6444 18.259C84.5014 18.106 84.3584 17.9513 84.2262 17.7894C84.1412 17.685 84.0778 17.6706 83.962 17.757C83.4099 18.1708 82.8506 18.5739 82.295 18.9823C82.0524 19.1604 82.047 19.1622 82.1682 19.4303C82.19 19.4771 82.275 19.5275 82.3275 19.5239C82.771 19.4969 83.2126 19.4609 83.6543 19.4231C83.8751 19.4051 84.0941 19.3799 84.3186 19.3583L84.3204 19.3565ZM86.1901 16.1952C86.1738 16.1844 86.1575 16.1736 86.1413 16.1646C85.5096 16.6288 84.876 17.0912 84.2281 17.5663C84.4471 17.8128 84.6444 18.0341 84.8453 18.2608C85.1349 18.0701 85.4317 17.9621 85.7702 17.9765C85.8082 17.9765 85.8734 17.8919 85.886 17.8379C85.9422 17.5896 85.9856 17.3359 86.0308 17.0858C86.0851 16.789 86.1358 16.4921 86.1883 16.1952H86.1901ZM91.8483 12.1756C91.8284 12.1792 91.8084 12.1828 91.7903 12.1864C91.6564 12.5625 91.5243 12.9385 91.3903 13.3164C91.4084 13.3236 91.4247 13.3307 91.4428 13.3361C91.5985 12.9889 91.7541 12.6434 91.9026 12.2944C91.9134 12.2674 91.8682 12.217 91.8483 12.1756Z" fill="white"/>
<path id="Vector_6" d="M20.0429 16.5569C21.1072 13.4621 22.1697 10.3656 23.2412 7.251C23.9543 7.42913 24.6747 7.42193 25.4295 7.24561C25.2521 7.66304 25.0965 8.04808 24.9281 8.42593C23.7969 10.9629 22.6873 13.5089 21.7262 16.1143C21.2701 17.3522 20.8646 18.6063 20.4356 19.855C20.4049 19.9449 20.394 20.0223 20.2528 20.0187C19.5451 19.9971 18.8356 19.9881 18.1261 19.9809C17.9704 19.9809 17.8129 19.9899 17.6591 20.0133C17.5306 20.0331 17.4835 19.9863 17.4437 19.8712C16.7323 17.8686 16.021 15.866 15.297 13.8688C14.5223 11.7294 13.7367 9.59547 12.9566 7.45972C12.9367 7.40394 12.9186 7.34816 12.8896 7.2636C13.0888 7.27799 13.2698 7.29599 13.4508 7.30138C14.1892 7.32477 14.9277 7.35896 15.6644 7.36256C16.0355 7.36256 16.4083 7.31398 16.7776 7.2708C16.926 7.2546 16.9948 7.27799 17.0455 7.43633C17.9903 10.4177 18.9424 13.3955 19.8926 16.3752C19.9126 16.4345 19.9361 16.4939 19.9578 16.5515C19.9868 16.5533 20.0139 16.5551 20.0429 16.5569Z" fill="white"/>
<path id="Vector_7" d="M53.3362 19.9973H49.3921C49.6637 15.7636 49.6582 11.5173 49.3867 7.25659C50.7098 7.42392 52.0257 7.43832 53.3416 7.26559C53.0756 11.5155 53.0737 15.7546 53.3362 19.9973Z" fill="white"/>
<path id="Vector_8" d="M51.3634 4.31468C50.1779 4.31468 49.2638 3.40245 49.2656 2.22392C49.2656 1.05259 50.196 0.12776 51.3689 0.131358C52.5436 0.134957 53.4757 1.06339 53.4739 2.22932C53.4739 3.39885 52.5436 4.31648 51.3634 4.31468Z" fill="white"/>
<path id="Vector_9" d="M48.3095 26.0896C47.5258 26.0896 47.0027 25.5408 46.999 24.7168C46.9954 23.8999 47.5294 23.3259 48.2986 23.3259C49.0715 23.3259 49.6037 23.8855 49.6091 24.706C49.6145 25.5282 49.086 26.0914 48.3113 26.0914L48.3095 26.0896ZM47.3629 24.742C47.4009 24.8949 47.4244 25.0748 47.4877 25.2386C47.6253 25.5966 47.924 25.7783 48.3186 25.7747C48.7023 25.7712 48.9901 25.5804 49.1276 25.2314C49.2507 24.9219 49.2616 24.6034 49.1638 24.2849C49.0335 23.8621 48.7312 23.639 48.3005 23.6408C47.8751 23.6426 47.5638 23.8747 47.4443 24.2939C47.4045 24.4307 47.3936 24.5728 47.3629 24.742Z" fill="white"/>
<path id="Vector_10" d="M0 23.387H0.336665V24.4629H1.85528V23.387H2.19918V26.0337H1.86795V24.8318H0.343905V26.0337H0V23.387Z" fill="white"/>
<path id="Vector_11" d="M11.4754 24.1824C11.4682 24.3 11.3674 24.3798 11.1731 24.4217C11.1858 24.4541 11.193 24.4865 11.2093 24.5153C11.3614 24.7798 11.3505 25.0443 11.184 25.2926C11.0157 25.5445 10.7641 25.6345 10.4654 25.6075C10.4473 25.6075 10.4274 25.5949 10.4129 25.6003C10.3496 25.6237 10.2862 25.6506 10.2229 25.6758C10.2717 25.7244 10.3116 25.8 10.3695 25.8162C10.5722 25.872 10.7803 25.8971 10.9831 25.9511C11.108 25.9835 11.2365 26.0303 11.3469 26.0987C11.5677 26.2354 11.6039 26.5053 11.4301 26.6996C11.3559 26.7806 11.2582 26.8544 11.1568 26.8957C10.8419 27.0289 10.5125 27.0343 10.1885 26.9371C9.9767 26.8742 9.80655 26.7536 9.76673 26.5197C9.72691 26.2876 9.83913 26.1311 10.0509 26.0393C9.84456 25.7784 9.84637 25.7478 10.0962 25.4923C9.84275 25.2926 9.75044 25.0263 9.81198 24.715C9.89886 24.2814 10.3315 24.0439 10.7876 24.1878C10.9451 24.2382 11.0862 24.2796 11.2491 24.204C11.3125 24.1734 11.3994 24.1914 11.4772 24.186L11.4754 24.1824ZM10.1106 24.8806C10.1106 25.1702 10.2898 25.361 10.5559 25.3592C10.8238 25.3592 11.0012 25.1558 10.9976 24.8572C10.9957 24.5783 10.8256 24.4055 10.5523 24.4037C10.2826 24.4037 10.1088 24.5891 10.1106 24.8824V24.8806ZM10.6717 26.7626C10.7912 26.7248 10.9487 26.6996 11.0808 26.6277C11.2636 26.5287 11.26 26.3326 11.0663 26.2624C10.8455 26.1814 10.6066 26.1311 10.3713 26.1149C10.2247 26.1059 10.1124 26.2336 10.0817 26.3884C10.0491 26.5503 10.1541 26.6349 10.2862 26.6816C10.3966 26.7194 10.5179 26.732 10.6736 26.7626H10.6717Z" fill="white"/>
<path id="Vector_12" d="M33.7989 26.0249C33.5836 25.7874 33.5872 25.7406 33.8406 25.4887C33.6071 25.2944 33.4967 25.0479 33.551 24.7438C33.6306 24.2904 34.0523 24.0349 34.5157 24.1788C34.6859 24.231 34.8397 24.276 35.0117 24.195C35.066 24.1698 35.1402 24.1842 35.2542 24.1788C35.2108 24.2688 35.1963 24.3534 35.1492 24.3822C35.0895 24.4163 35.0026 24.402 34.9175 24.4092C34.9646 24.5297 35.0225 24.6305 35.0424 24.7384C35.1366 25.2278 34.7583 25.6435 34.2533 25.6093C34.2116 25.6057 34.1664 25.5841 34.1302 25.5931C34.0741 25.6075 34.0234 25.6417 33.9691 25.6686C34.0035 25.7154 34.0306 25.7892 34.0741 25.8018C34.2877 25.8594 34.5085 25.8918 34.7221 25.9475C34.8488 25.9799 34.9773 26.0249 35.0859 26.0915C35.3212 26.2354 35.3556 26.4999 35.1691 26.7032C35.0949 26.7842 34.9954 26.8544 34.894 26.8976C34.5972 27.0235 34.2858 27.0271 33.9763 26.9461C33.7428 26.885 33.5546 26.7608 33.5075 26.5053C33.4659 26.2696 33.6017 26.1275 33.7971 26.0267L33.7989 26.0249ZM34.3039 24.402C34.0415 24.3966 33.8605 24.5801 33.8532 24.8572C33.846 25.1558 34.0234 25.3556 34.2949 25.3592C34.5555 25.3628 34.7383 25.1666 34.7474 24.8806C34.7564 24.5981 34.5791 24.4092 34.3021 24.4038L34.3039 24.402ZM34.3872 26.7608C34.5157 26.7266 34.6659 26.705 34.7981 26.6439C34.8651 26.6133 34.9393 26.5125 34.9393 26.4423C34.9393 26.3758 34.8596 26.2714 34.7926 26.2516C34.5773 26.185 34.3546 26.1383 34.1302 26.1095C34.0017 26.0933 33.8424 26.257 33.8225 26.392C33.8008 26.5431 33.8913 26.6295 34.018 26.6744C34.1284 26.714 34.2478 26.7302 34.389 26.7608H34.3872Z" fill="white"/>
<path id="Vector_13" d="M13.7401 24.1877H13.9591C13.979 24.2399 13.9971 24.2957 14.0243 24.3695C14.2107 24.2111 14.4116 24.1248 14.6542 24.1463C14.8949 24.1679 15.065 24.2939 15.2008 24.508C15.3818 24.2219 15.637 24.1283 15.9465 24.1463C16.2814 24.1661 16.5293 24.3371 16.5547 24.6663C16.5891 25.1162 16.5637 25.5696 16.5637 26.032H16.2596C16.2596 25.7855 16.2596 25.5372 16.2596 25.2889C16.2596 25.1395 16.2633 24.9902 16.2542 24.8409C16.2397 24.589 16.1058 24.4522 15.8633 24.4342C15.5917 24.4144 15.3872 24.535 15.3474 24.7725C15.3148 24.9704 15.3202 25.1755 15.3148 25.3789C15.3094 25.593 15.3148 25.8071 15.3148 26.032H14.9908C14.9908 25.9186 14.9944 25.8017 14.9908 25.6847C14.9818 25.3753 14.9908 25.064 14.9546 24.7563C14.9275 24.5152 14.7211 24.4054 14.4551 24.4378C14.1745 24.472 14.046 24.6034 14.046 24.8571C14.046 25.2439 14.046 25.6325 14.046 26.032H13.7383V24.1895L13.7401 24.1877Z" fill="white"/>
<path id="Vector_14" d="M57.0083 25.5264C57.307 25.7189 57.6147 25.7981 57.9459 25.7693C57.993 25.7657 58.0419 25.7639 58.0889 25.7531C58.3007 25.7045 58.4383 25.5768 58.4618 25.4113C58.4853 25.2385 58.4021 25.0856 58.1957 24.9866C58.0129 24.8985 57.8174 24.8373 57.6274 24.7635C57.526 24.7257 57.4246 24.6915 57.3251 24.6484C57.0934 24.5494 56.9287 24.3893 56.9197 24.1266C56.9088 23.8513 57.0228 23.6264 57.2581 23.4734C57.5152 23.3079 57.8048 23.3061 58.0944 23.3349C58.1957 23.3457 58.2953 23.3709 58.3948 23.3943C58.7043 23.468 58.7351 23.5256 58.6392 23.8441C58.4527 23.7829 58.2699 23.7127 58.0817 23.6623C57.8772 23.6084 57.6744 23.6282 57.4898 23.7361C57.2274 23.8891 57.2292 24.1949 57.5007 24.3335C57.6708 24.4198 57.8591 24.4684 58.0364 24.5404C58.1921 24.6016 58.3514 24.6592 58.498 24.7383C58.7586 24.8769 58.8582 25.1144 58.8491 25.3969C58.8401 25.6811 58.6971 25.8899 58.4274 25.987C57.9695 26.1508 57.5061 26.1238 57.0518 25.9636C57.0156 25.951 56.9685 25.9007 56.9685 25.8683C56.9685 25.7639 56.9921 25.6596 57.0102 25.5264H57.0083Z" fill="white"/>
<path id="Vector_15" d="M50.3043 25.834V26.955H49.9785V24.1967H50.2138C50.2283 24.2614 50.2428 24.328 50.2627 24.418C50.3134 24.3802 50.3496 24.355 50.384 24.328C50.7261 24.0419 51.2075 24.0887 51.4863 24.4378C51.765 24.7868 51.7885 25.3806 51.5388 25.7513C51.2998 26.1039 50.8329 26.1867 50.4564 25.942C50.4129 25.9132 50.3713 25.8826 50.3061 25.8358L50.3043 25.834ZM51.3813 25.1071C51.3632 25.0117 51.3523 24.9038 51.3216 24.803C51.26 24.6051 51.1243 24.4738 50.9161 24.4432C50.708 24.4126 50.5396 24.499 50.4184 24.6645C50.2609 24.8768 50.2482 25.1161 50.3116 25.3644C50.3767 25.6145 50.5794 25.7782 50.8292 25.7872C51.0645 25.7962 51.2564 25.6451 51.3324 25.3842C51.3578 25.2996 51.365 25.2097 51.3813 25.1089V25.1071Z" fill="white"/>
<path id="Vector_16" d="M4.65527 23.1892H4.9666C4.9666 23.3817 4.9666 23.5707 4.9666 23.7596C4.9666 23.9485 4.9666 24.1374 4.9666 24.3282C5.12226 24.2652 5.25801 24.1824 5.40462 24.159C5.80645 24.0906 6.1395 24.2868 6.29335 24.6664C6.44177 25.0317 6.42548 25.3933 6.19923 25.7244C5.93134 26.1202 5.44988 26.1904 5.06796 25.9007C5.04081 25.8809 5.01366 25.8593 4.97746 25.8342C4.95755 25.9097 4.94126 25.9709 4.92316 26.0375H4.65527V23.191V23.1892ZM4.91411 25.1036C4.97384 25.2656 5.0028 25.4347 5.08968 25.5679C5.27792 25.8575 5.69423 25.8557 5.90057 25.5841C6.09062 25.334 6.09786 24.9165 5.91686 24.6592C5.71052 24.3641 5.30145 24.3515 5.09873 24.6502C5.01185 24.778 4.97746 24.9399 4.91411 25.1036Z" fill="white"/>
<path id="Vector_17" d="M8.30057 25.1089H7.00097C6.97744 25.5983 7.37202 25.9564 8.17748 25.6973C8.28971 25.9024 8.27884 25.9474 8.05621 26.0032C7.89512 26.0428 7.72498 26.077 7.56207 26.0716C7.04079 26.0572 6.7005 25.7171 6.64258 25.1755C6.5919 24.6987 6.87426 24.2777 7.31772 24.1643C7.93675 24.0078 8.4689 24.5008 8.30237 25.1053L8.30057 25.1089ZM7.02631 24.8642H7.98381C7.98019 24.5997 7.85168 24.4612 7.59647 24.436C7.30324 24.4054 7.08966 24.562 7.02631 24.8642Z" fill="white"/>
<path id="Vector_18" d="M53.6457 25.1054H52.3299C52.3045 25.6704 52.6575 25.8413 53.5371 25.7027C53.5498 25.7711 53.5625 25.8413 53.5752 25.9097C53.1154 26.2047 52.5 26.086 52.2267 25.7945C51.9081 25.4544 51.8773 24.8391 52.1688 24.4702C52.4059 24.1698 52.8457 24.0582 53.2131 24.2039C53.5389 24.3335 53.6982 24.652 53.6476 25.1054H53.6457ZM53.3036 24.8751C53.3091 24.5944 53.1697 24.4504 52.9 24.4325C52.6086 24.4145 52.3932 24.5836 52.3624 24.8643C52.4041 24.8679 52.4439 24.8733 52.4855 24.8733C52.7552 24.8733 53.0231 24.8733 53.3055 24.8733L53.3036 24.8751Z" fill="white"/>
<path id="Vector_19" d="M45.8535 25.1072H44.5376C44.5122 25.6721 44.8616 25.8413 45.743 25.7045C45.7557 25.7729 45.7684 25.8431 45.7811 25.9114C45.3195 26.2047 44.7059 26.0878 44.4326 25.7963C44.1195 25.4616 44.0833 24.8589 44.3638 24.4864C44.5991 24.1751 45.0444 24.0564 45.4191 24.2057C45.7449 24.3353 45.9041 24.6538 45.8517 25.1072H45.8535ZM45.5132 24.8697C45.5132 24.5872 45.3629 24.4432 45.086 24.436C44.8 24.4288 44.5919 24.6016 44.5738 24.8697H45.5132Z" fill="white"/>
<path id="Vector_20" d="M66.3787 25.1073C66.4312 25.7118 66.7317 25.854 67.5878 25.7046C67.6675 25.9331 67.6638 25.9529 67.4484 26.0051C67.2874 26.0447 67.1172 26.0771 66.9525 26.0735C66.4674 26.0627 66.0982 25.7244 66.042 25.2674C65.9751 24.7204 66.2231 24.3012 66.69 24.1734C67.2421 24.0223 67.7181 24.366 67.729 24.9147C67.7326 25.0587 67.6964 25.1145 67.5408 25.1109C67.157 25.1001 66.7733 25.1073 66.3769 25.1073H66.3787ZM67.3706 24.868C67.3778 24.6053 67.2457 24.4613 66.9851 24.4361C66.6882 24.4073 66.4674 24.5729 66.424 24.868H67.3706Z" fill="white"/>
<path id="Vector_21" d="M18.6147 25.1072H17.2988C17.2753 25.6722 17.6228 25.8413 18.5061 25.7046C18.5187 25.7729 18.5314 25.8431 18.5423 25.9115C18.0825 26.2048 17.4671 26.0878 17.1938 25.7963C16.877 25.4563 16.8463 24.8409 17.1377 24.4721C17.3748 24.1716 17.8128 24.06 18.1821 24.2076C18.5079 24.3371 18.6672 24.6592 18.6147 25.109V25.1072ZM18.2726 24.8661C18.2816 24.607 18.1513 24.4631 17.8925 24.4361C17.5974 24.4073 17.373 24.5746 17.3296 24.8661H18.2744H18.2726Z" fill="white"/>
<path id="Vector_22" d="M37.1114 25.1054H35.7828C35.7068 25.6542 36.1629 25.8791 36.9774 25.6955C36.9919 25.7693 37.0064 25.8413 37.0209 25.9114C36.6281 26.1562 36.0561 26.1256 35.7321 25.8485C35.4244 25.5858 35.3212 25.0892 35.4896 24.6789C35.6398 24.3119 35.9783 24.1176 36.4181 24.1482C36.7512 24.1715 37.0028 24.3785 37.0788 24.7095C37.1059 24.8283 37.0987 24.956 37.1095 25.1036L37.1114 25.1054ZM35.8009 24.8607H36.7566C36.7439 24.5872 36.619 24.4558 36.3584 24.4342C36.0688 24.4091 35.8606 24.5656 35.8009 24.8607Z" fill="white"/>
<path id="Vector_23" d="M24.678 25.7027C24.6907 25.7818 24.6997 25.8466 24.7088 25.9114C24.249 26.2065 23.6227 26.0877 23.3494 25.7818C23.0327 25.4292 23.0182 24.803 23.3277 24.4432C23.5739 24.1571 24.0083 24.0599 24.3648 24.2129C24.6816 24.3496 24.8355 24.6627 24.783 25.0999H23.4671C23.4417 25.6721 23.7965 25.8448 24.678 25.7027ZM24.4391 24.866C24.4535 24.6087 24.3214 24.463 24.0626 24.436C23.7675 24.4054 23.5449 24.5691 23.496 24.866H24.4391Z" fill="white"/>
<path id="Vector_24" d="M2.94085 25.1053C2.96257 25.7027 3.38431 25.9006 4.13185 25.6973C4.23683 25.9258 4.23502 25.9474 3.98885 26.0086C3.83319 26.0481 3.67029 26.0769 3.51101 26.0733C2.99877 26.0607 2.64763 25.7189 2.5897 25.1971C2.5354 24.7095 2.81596 24.2831 3.26303 24.1679C3.88749 24.0078 4.39249 24.4756 4.25131 25.1053H2.93904H2.94085ZM3.93817 24.866C3.92007 24.5763 3.7807 24.4432 3.50739 24.4342C3.22321 24.4252 3.02411 24.5853 2.98429 24.866H3.93998H3.93817Z" fill="white"/>
<path id="Vector_25" d="M13.226 25.7009C13.3092 25.8809 13.2622 25.9924 13.0721 26.0086C12.8368 26.0284 12.5906 26.077 12.3644 26.0338C11.8304 25.9313 11.5481 25.3663 11.7074 24.7941C11.8485 24.2921 12.3427 24.0294 12.8531 24.186C13.188 24.2885 13.4305 24.6808 13.3545 25.0172C13.3454 25.055 13.2658 25.1036 13.2187 25.1036C12.864 25.1108 12.511 25.1072 12.1562 25.109C12.1092 25.109 12.0621 25.1162 12.0169 25.1198C12.0549 25.7117 12.4006 25.8773 13.226 25.7009ZM12.0585 24.8661H13.0051C13.0142 24.6052 12.8803 24.4612 12.6214 24.4361C12.3246 24.4073 12.1038 24.5728 12.0585 24.8661Z" fill="white"/>
<path id="Vector_26" d="M31.4385 25.1179C31.4367 24.5313 31.8005 24.1462 32.3525 24.1462C32.8883 24.1462 33.263 24.5439 33.2666 25.1089C33.2702 25.6828 32.8901 26.0805 32.3453 26.0805C31.8005 26.0805 31.4421 25.6972 31.4403 25.1197L31.4385 25.1179ZM32.9245 25.1179C32.9245 24.7688 32.7906 24.5421 32.5354 24.4647C32.2186 24.3676 31.9218 24.5061 31.8186 24.7976C31.6774 25.1934 31.815 25.6306 32.1154 25.7458C32.1372 25.7548 32.1607 25.7602 32.1842 25.7656C32.6259 25.8646 32.9227 25.6037 32.9245 25.1179Z" fill="white"/>
<path id="Vector_27" d="M59.1084 25.1035C59.1102 24.5277 59.4722 24.1462 60.0188 24.1462C60.5619 24.1462 60.9438 24.5529 60.9365 25.1214C60.9293 25.6936 60.56 26.0787 60.0188 26.0787C59.4668 26.0787 59.1066 25.6918 59.1084 25.1035ZM60.5962 25.1107C60.5962 24.785 60.4659 24.5529 60.2361 24.4701C59.9247 24.3568 59.6044 24.4935 59.4939 24.785C59.3437 25.1808 59.4849 25.6324 59.7908 25.7458C59.8125 25.7548 59.836 25.7602 59.8596 25.7638C60.2994 25.8592 60.5962 25.5965 60.5962 25.1107Z" fill="white"/>
<path id="Vector_28" d="M39.614 24.848C39.605 24.4108 39.3118 24.3172 38.7579 24.5691C38.6475 24.3802 38.6601 24.292 38.8574 24.238C39.0547 24.1841 39.2701 24.1535 39.4747 24.1643C39.7226 24.1787 39.8801 24.3532 39.9127 24.6357C39.9453 24.92 39.9434 25.2078 39.9543 25.4939C39.9615 25.6559 39.9742 25.8106 40.1896 25.8358C40.1769 25.9168 40.1643 25.9869 40.1534 26.0535C39.9163 26.1111 39.8113 26.0661 39.6484 25.8304C39.5796 25.8808 39.5127 25.9384 39.4385 25.9833C39.214 26.1147 38.9805 26.1291 38.7543 25.9995C38.5624 25.8898 38.5009 25.7044 38.5171 25.4939C38.5371 25.2492 38.6927 25.0981 38.9081 25.0261C39.1326 24.9487 39.3715 24.9128 39.6158 24.8552L39.614 24.848ZM39.605 25.0837C39.4095 25.1287 39.2212 25.1521 39.0457 25.215C38.8737 25.2762 38.8122 25.4525 38.8683 25.6307C38.9226 25.807 39.0638 25.8196 39.214 25.8034C39.5543 25.7674 39.6683 25.5731 39.605 25.0819V25.0837Z" fill="white"/>
<path id="Vector_29" d="M40.8088 26.0338H40.4902V24.1932H40.7183C40.7346 24.2382 40.7545 24.2903 40.7599 24.3047C40.9934 24.2507 41.2124 24.1644 41.4351 24.1536C41.8206 24.1356 42.0849 24.3623 42.112 24.7473C42.141 25.1684 42.1193 25.593 42.1193 26.0284H41.8116C41.8116 25.8881 41.8116 25.7477 41.8116 25.6056C41.8079 25.3483 41.8134 25.091 41.7971 24.8355C41.7808 24.607 41.6595 24.4865 41.4441 24.4433C41.2106 24.3965 40.9283 24.4829 40.845 24.6394C40.816 24.6934 40.8124 24.7653 40.8124 24.8283C40.8088 25.2278 40.8124 25.6272 40.8124 26.0338H40.8088Z" fill="white"/>
<path id="Vector_30" d="M29.8907 26.0339H29.5685C29.5685 25.8647 29.5703 25.6992 29.5685 25.5337C29.5649 25.2962 29.5649 25.0569 29.545 24.8194C29.5287 24.6232 29.4219 24.4847 29.2156 24.4487C28.9857 24.4073 28.7685 24.4325 28.6074 24.6214C28.5676 24.6682 28.5585 24.7546 28.5585 24.8212C28.5549 25.2206 28.5567 25.6182 28.5567 26.0303H28.249V24.1932H28.4717C28.4898 24.24 28.5115 24.294 28.5187 24.3138C28.7251 24.2562 28.926 24.1662 29.1323 24.1518C29.5577 24.123 29.7948 24.3282 29.8726 24.742C29.8907 24.8356 29.8907 24.9309 29.8925 25.0263C29.8943 25.3592 29.8925 25.6902 29.8925 26.0321L29.8907 26.0339Z" fill="white"/>
<path id="Vector_31" d="M55.6694 26.0338H55.3635C55.3635 25.7567 55.3653 25.485 55.3635 25.2115C55.3635 25.0855 55.3598 24.9596 55.3454 24.8372C55.3218 24.6447 55.2349 24.4972 55.025 24.454C54.7951 24.4072 54.5761 24.4288 54.4132 24.6123C54.3679 24.6627 54.3553 24.7545 54.3553 24.8264C54.3498 25.2259 54.3535 25.6235 54.3535 26.0338H54.0439V24.1985H54.272C54.2883 24.2435 54.3064 24.2938 54.3154 24.3172C54.52 24.2597 54.7191 24.1679 54.9236 24.1553C55.358 24.1247 55.6241 24.3316 55.6657 24.7599C55.7056 25.1791 55.6748 25.6037 55.6748 26.0355L55.6694 26.0338Z" fill="white"/>
<path id="Vector_32" d="M19.0049 24.1877H19.2293C19.2492 24.238 19.2691 24.292 19.2782 24.3172C19.4791 24.2596 19.6728 24.1679 19.8719 24.1535C20.3389 24.1211 20.6158 24.3676 20.6411 24.8336C20.6629 25.2258 20.6448 25.6217 20.6448 26.0283H20.328C20.328 25.8538 20.328 25.6829 20.328 25.5101C20.328 25.3014 20.3334 25.0909 20.3172 24.884C20.3027 24.7004 20.2448 24.5259 20.0366 24.4665C19.8103 24.4018 19.5895 24.4162 19.4103 24.5781C19.3542 24.6303 19.3216 24.7328 19.3198 24.8138C19.3108 25.2132 19.3162 25.6145 19.3162 26.0283H19.0049V24.1877Z" fill="white"/>
<path id="Vector_33" d="M61.3167 24.1931H61.6008C61.6045 24.2633 61.6081 24.3335 61.6099 24.4018C61.6189 24.7293 61.6081 25.0586 61.6389 25.3842C61.6714 25.7315 61.9647 25.879 62.2868 25.7369C62.419 25.6793 62.495 25.593 62.4914 25.4346C62.4841 25.0892 62.4878 24.7419 62.4896 24.3964C62.4896 24.3317 62.495 24.2687 62.4986 24.1931H62.8063V26.032H62.5312C62.5167 25.9798 62.504 25.9312 62.5004 25.9204C62.3049 25.9744 62.1167 26.0608 61.9266 26.0698C61.59 26.0842 61.3492 25.8898 61.3239 25.557C61.2913 25.1089 61.3149 24.6555 61.3149 24.1931H61.3167Z" fill="white"/>
<path id="Vector_34" d="M30.1385 24.4235C30.1566 24.3335 30.1693 24.2651 30.1838 24.1932C30.2743 24.186 30.3557 24.1788 30.4607 24.1698C30.4607 24.0438 30.4607 23.9251 30.4607 23.8081C30.4625 23.2503 30.6906 23.083 31.2571 23.2431C31.2426 23.3241 31.2264 23.4087 31.2119 23.4914C30.9307 23.4914 30.7889 23.63 30.7865 23.9071C30.7865 23.9898 30.7865 24.0726 30.7865 24.1752H31.2734V24.4307H30.7938V26.0302H30.4625V24.4433C30.3485 24.4361 30.2562 24.4307 30.1367 24.4235H30.1385Z" fill="white"/>
<path id="Vector_35" d="M65.818 24.5476C65.4216 24.4253 65.0814 24.3281 64.8117 24.652C64.6343 24.8661 64.6343 25.3465 64.8117 25.566C65.0777 25.8971 65.418 25.7945 65.7529 25.6992C65.8615 25.9205 65.8398 25.9726 65.6081 26.0356C65.1682 26.158 64.7393 26.0338 64.5221 25.7207C64.2777 25.3699 64.2868 24.7905 64.5438 24.4541C64.7737 24.1536 65.4216 24.0168 65.7474 24.2255C65.8054 24.2633 65.7909 24.4145 65.8162 24.5458L65.818 24.5476Z" fill="white"/>
<path id="Vector_36" d="M43.9019 25.6991C43.9996 25.9222 43.9779 25.9726 43.7571 26.0356C43.31 26.1615 42.8756 26.0338 42.6584 25.7099C42.4213 25.3554 42.4303 24.7869 42.6874 24.4594C42.9534 24.1211 43.3263 24.1121 43.7064 24.1679C43.9852 24.2093 44.0014 24.2507 43.9055 24.5278C43.5634 24.4288 43.2086 24.319 42.9408 24.6717C42.7724 24.8948 42.7815 25.3608 42.9571 25.5731C43.2267 25.8988 43.567 25.7945 43.9001 25.7009L43.9019 25.6991Z" fill="white"/>
<path id="Vector_37" d="M26.111 25.8234C26.1055 25.9151 26.1001 25.9853 26.0947 26.0699C25.9499 26.0699 25.8051 26.0861 25.6675 26.0663C25.4394 26.0321 25.3164 25.8719 25.3127 25.6182C25.3073 25.2962 25.3127 24.9741 25.3127 24.6502C25.3127 24.5855 25.3127 24.5207 25.3127 24.4433C25.2059 24.4361 25.1136 24.4307 25.0068 24.4235C25.0141 24.3462 25.0195 24.276 25.0267 24.1932C25.1172 24.186 25.2041 24.1806 25.3073 24.1716V23.7272C25.4195 23.711 25.5155 23.6966 25.6385 23.6804V24.1788H26.1254V24.4307H25.6621C25.6621 24.8571 25.6566 25.2602 25.6693 25.6632C25.6693 25.7118 25.7616 25.7784 25.825 25.7982C25.9064 25.8252 26.0024 25.8144 26.1128 25.8216L26.111 25.8234Z" fill="white"/>
<path id="Vector_38" d="M22.0356 25.8268C22.0284 25.924 22.0211 25.9941 22.0157 26.0733C21.8763 26.0733 21.7442 26.0859 21.6157 26.0697C21.3768 26.0409 21.2428 25.8808 21.2392 25.6235C21.2338 25.2366 21.2392 24.848 21.2392 24.4414C21.136 24.436 21.0437 24.4324 20.9297 24.427C20.9387 24.3478 20.946 24.274 20.9532 24.1931C21.0455 24.1859 21.127 24.1805 21.232 24.1733V23.7252C21.346 23.7091 21.4383 23.6965 21.565 23.6785C21.565 23.8026 21.5722 23.9124 21.565 24.0221C21.5541 24.1499 21.6084 24.1931 21.7315 24.1823C21.8329 24.1733 21.9343 24.1823 22.0483 24.1823V24.4288H21.5668C21.5668 24.5835 21.5668 24.7238 21.5668 24.8642C21.5668 25.0909 21.565 25.3176 21.5759 25.5443C21.5867 25.7728 21.6175 25.7962 21.8438 25.8106C21.9017 25.8142 21.9614 25.8196 22.041 25.8268H22.0356Z" fill="white"/>
<path id="Vector_39" d="M27.7082 26.0337H27.377V23.387H27.7082V26.0337Z" fill="white"/>
<path id="Vector_40" d="M9.65618 24.1177C9.63988 24.2094 9.63989 24.285 9.60911 24.3462C9.58377 24.3984 9.53128 24.4577 9.4806 24.4703C9.11317 24.5657 9.01905 24.6539 9.03715 24.9975C9.05525 25.3358 9.04077 25.6759 9.04077 26.0303H8.7041V24.195H8.95207C8.97018 24.276 8.99009 24.3606 9.01362 24.4703C9.20186 24.3138 9.35571 24.1087 9.65618 24.1195V24.1177Z" fill="white"/>
<path id="Vector_41" d="M63.3036 24.1967C63.4628 24.1799 63.5648 24.2669 63.6095 24.4576C63.8031 24.3155 63.9534 24.0959 64.2484 24.1211C64.2267 24.2399 64.2068 24.3478 64.1869 24.454C64.0982 24.472 64.0221 24.481 63.9479 24.5026C63.7108 24.5763 63.6438 24.6699 63.642 24.9146C63.642 25.2727 63.6402 25.6307 63.6366 25.9888C63.6366 25.9996 63.6294 26.0104 63.6203 26.032H63.3018V24.1967H63.3036Z" fill="white"/>
<path id="Vector_42" d="M37.8208 26.0355H37.4805V24.1894H37.7266C37.7447 24.2758 37.7628 24.3603 37.7846 24.4647C37.9837 24.3064 38.1357 24.094 38.4253 24.1192C38.4144 24.1858 38.4036 24.2416 38.3982 24.2992C38.3873 24.4125 38.3384 24.4593 38.2135 24.4845C37.9764 24.5313 37.7918 24.6032 37.8153 24.9487C37.8389 25.3032 37.8208 25.6612 37.8208 26.0337V26.0355Z" fill="white"/>
<path id="Vector_43" d="M3.75562 23.272C3.81173 23.4627 3.76105 23.5437 3.60539 23.5814C3.43887 23.6228 3.27959 23.6912 3.07324 23.7614C3.10039 23.684 3.10401 23.612 3.13659 23.594C3.33751 23.4807 3.54385 23.3799 3.75562 23.272Z" fill="white"/>
<path id="Vector_44" d="M35.9288 23.7504C35.9234 23.5957 36.2093 23.4031 36.584 23.2898C36.6401 23.4499 36.5931 23.5417 36.4193 23.5831C36.2582 23.6227 36.1025 23.6892 35.9288 23.7504Z" fill="white"/>
<path id="Vector_45" d="M81.6625 13.0377C82.8061 13.0377 83.7331 12.1161 83.7331 10.9793C83.7331 9.84246 82.8061 8.9209 81.6625 8.9209C80.5189 8.9209 79.5918 9.84246 79.5918 10.9793C79.5918 12.1161 80.5189 13.0377 81.6625 13.0377Z" fill="#87CBE7"/>
</g>
<defs>
<clipPath id="clip0_3534_1055">
<rect width="94.0345" height="27" fill="white"/>
</clipPath>
</defs>
</svg>
