<svg width="24" height="24" viewBox="0 0 24 24" fill="none" xmlns="http://www.w3.org/2000/svg">
<g clip-path="url(#clip0_1_5)">
<path d="M24 14V8C24 5.243 21.757 3 19 3H5.00001C4.81301 3 4.63001 3.014 4.44801 3.034L1.70701 0.292998C1.31601 -0.0980018 0.684006 -0.0980018 0.293006 0.292998C-0.0979941 0.683998 -0.0979941 1.316 0.293006 1.707L22.293 23.707C22.488 23.902 22.744 24 23 24C23.256 24 23.512 23.902 23.707 23.707C24.098 23.316 24.098 22.684 23.707 22.293L20.24 18.826C22.396 18.271 24 16.327 24 14ZM22 14C22 15.654 20.654 17 19 17H18.5C18.475 17 18.453 17.013 18.429 17.014L6.41401 5H19C20.654 5 22 6.346 22 8V14ZM16.5 21C16.5 21.552 16.052 22 15.5 22H8.00001C7.44801 22 7.00001 21.552 7.00001 21C7.00001 20.448 7.44801 20 8.00001 20H11V19H5.00001C2.24301 19 5.84871e-06 16.757 5.84871e-06 14V8C5.84871e-06 7.579 0.0530058 7.159 0.157006 6.751C0.294006 6.216 0.837006 5.892 1.37401 6.031C1.90901 6.168 2.23101 6.713 2.09401 7.248C2.03101 7.493 1.99901 7.746 1.99901 7.999V13.999C1.99901 15.653 3.34501 16.999 4.99901 16.999H11.999C12.551 16.999 12.999 17.447 12.999 17.999V19.999H15.499C16.051 19.999 16.499 20.447 16.499 20.999L16.5 21Z" fill="black"/>
</g>
<defs>
<clipPath id="clip0_1_5">
<rect width="24" height="24" fill="white"/>
</clipPath>
</defs>
</svg>
