<svg width="18" height="18" viewBox="0 0 18 18" fill="none" xmlns="http://www.w3.org/2000/svg">
<g id="vertical-slider-square--adjustment-adjust-controls-fader-vertical-settings-slider-square">
<path id="Rectangle 898" d="M16.5 1.5V16.5H1.5V1.5H16.5Z" stroke="#02282E" stroke-width="2"/>
<path id="Vector 2006" d="M11.8105 12V14.25" stroke="#02282E" stroke-width="2"/>
<path id="Vector 2010" d="M11.8105 3.75V8.625" stroke="#02282E" stroke-width="2"/>
<path id="Ellipse 612" d="M11.8111 8.62195C11.5893 8.62195 11.3696 8.66564 11.1647 8.75052C10.9598 8.8354 10.7736 8.95981 10.6168 9.11664C10.4599 9.27348 10.3355 9.45968 10.2506 9.6646C10.1658 9.86952 10.1221 10.0891 10.1221 10.3109C10.1221 10.5328 10.1658 10.7524 10.2506 10.9573C10.3355 11.1622 10.4599 11.3484 10.6168 11.5053C10.7736 11.6621 10.9598 11.7865 11.1647 11.8714C11.3696 11.9563 11.5893 11.9999 11.8111 11.9999C12.0329 11.9999 12.2525 11.9563 12.4574 11.8714C12.6623 11.7865 12.8485 11.6621 13.0054 11.5053C13.1622 11.3484 13.2866 11.1622 13.3715 10.9573C13.4564 10.7524 13.5001 10.5328 13.5001 10.3109C13.5001 10.0891 13.4564 9.86952 13.3715 9.6646C13.2866 9.45968 13.1622 9.27348 13.0054 9.11664C12.8485 8.95981 12.6623 8.8354 12.4574 8.75052C12.2525 8.66564 12.0329 8.62195 11.8111 8.62195Z" stroke="#02282E" stroke-width="2"/>
<path id="Ellipse 613" d="M6.18825 4.5C5.7405 4.5 5.31109 4.67787 4.99448 4.99448C4.67787 5.31109 4.5 5.7405 4.5 6.18825C4.5 6.636 4.67787 7.06541 4.99448 7.38202C5.31109 7.69863 5.7405 7.8765 6.18825 7.8765C6.636 7.8765 7.06541 7.69863 7.38202 7.38202C7.69863 7.06541 7.8765 6.636 7.8765 6.18825C7.8765 5.7405 7.69863 5.31109 7.38202 4.99448C7.06541 4.67787 6.636 4.5 6.18825 4.5Z" stroke="#02282E" stroke-width="2"/>
<path id="Vector 2009" d="M6.18848 7.875V14.25" stroke="#02282E" stroke-width="2"/>
</g>
</svg>
