<svg width="20" height="20" viewBox="0 0 20 20" fill="none" xmlns="http://www.w3.org/2000/svg">
<g id="Help-Question-1--Streamline-Sharp" clip-path="url(#clip0_3343_1484)">
<g id="help-question-1--circle-faq-frame-help-info-mark-more-query-question">
<path id="Vector 135" d="M7.2041 8.40276V8.00345C7.2041 6.45974 8.45552 5.20831 9.99924 5.20831C11.543 5.20831 12.7944 6.45974 12.7944 8.00345V8.40276L9.99924 10.7986V12.7951" stroke="white" stroke-width="2"/>
<path id="Vector 166" d="M10 13.993V15.5903" stroke="white" stroke-width="2"/>
<path id="Ellipse 7" d="M1.21484 9.99999C1.21484 12.3299 2.14038 14.5643 3.78783 16.2117C5.43529 17.8592 7.66971 18.7847 9.99957 18.7847C12.3294 18.7847 14.5639 17.8592 16.2113 16.2117C17.8588 14.5643 18.7843 12.3299 18.7843 9.99999C18.7843 7.67014 17.8588 5.43572 16.2113 3.78826C14.5639 2.14081 12.3294 1.21527 9.99957 1.21527C7.66971 1.21527 5.43529 2.14081 3.78783 3.78826C2.14038 5.43572 1.21484 7.67014 1.21484 9.99999Z" stroke="white" stroke-width="2"/>
</g>
</g>
<defs>
<clipPath id="clip0_3343_1484">
<rect width="20" height="20" fill="white"/>
</clipPath>
</defs>
</svg>
