<svg width="20" height="20" viewBox="0 0 20 20" fill="none" xmlns="http://www.w3.org/2000/svg">
<g id="User-Circle-Single--Streamline-Flex">
<path id="Intersect" d="M14.6301 16.2925C14.3593 15.2712 13.7584 14.3681 12.921 13.7238C12.0836 13.0795 11.0567 12.7302 10.0001 12.7302C8.94354 12.7302 7.9166 13.0795 7.0792 13.7238C6.2418 14.3681 5.64092 15.2712 5.37012 16.2925" stroke="#093343" stroke-width="2" stroke-linecap="round" stroke-linejoin="round"/>
<path id="Vector" d="M10 18.125C15.2 18.125 18.125 15.2 18.125 10C18.125 4.8 15.2 1.875 10 1.875C4.8 1.875 1.875 4.8 1.875 10C1.875 15.2 4.8 18.125 10 18.125Z" stroke="#093343" stroke-width="2" stroke-linecap="round" stroke-linejoin="round"/>
<path id="Vector_2" d="M9.99965 10.725C11.7496 10.725 12.7334 9.74001 12.7334 7.99001C12.7334 6.24001 11.7484 5.25626 9.9984 5.25626C8.2484 5.25626 7.26465 6.24001 7.26465 7.99001C7.26465 9.74001 8.24965 10.725 9.99965 10.725Z" stroke="#093343" stroke-width="2" stroke-linecap="round" stroke-linejoin="round"/>
</g>
</svg>
