<svg width="132" height="132" viewBox="0 0 132 132" fill="none" xmlns="http://www.w3.org/2000/svg">
<g id="Group">
<g id="Group_2">
<path id="Vector" d="M0 0H132V132H0V0Z" fill="#0B45D9"/>
<path id="Vector_2" fill-rule="evenodd" clip-rule="evenodd" d="M66.0005 24.75C56.4563 24.75 47.2085 28.0551 39.8299 34.1086C32.4513 40.162 27.4007 48.5847 25.5368 57.9459C23.6728 67.3045 25.1113 77.0215 29.6101 85.439C34.1064 93.8566 41.3845 100.454 50.2017 104.107C59.0188 107.76 68.8287 108.245 77.963 105.476C87.0947 102.707 94.9863 96.8576 100.29 88.9221C105.593 80.9892 107.98 71.4605 107.047 61.9626C106.114 52.4648 101.914 43.5858 95.1668 36.8363C87.4324 29.0993 76.942 24.7526 66.003 24.75H66.0005ZM66.5366 92.6475C52.4291 92.6475 41.0442 84.9337 41.0442 71.6512C41.0442 51.6862 66.5366 39.3112 66.5366 39.3112C66.5366 39.3112 91.9879 50.5312 91.9879 71.6512C91.9879 84.975 80.6029 92.6475 66.5366 92.6475Z" fill="white"/>
</g>
</g>
</svg>
